<svg xmlns="http://www.w3.org/2000/svg" fill="none" viewBox="0 0 14 14">
<g id="Free Remix/Programming/Programming/Browser/browser-multiple-window--app-code-apps-two-window-cascade"><path id="Union" fill="currentColor" fill-rule="evenodd" d="M3.625 3.5V5c0 0.34518 -0.27982 0.625 -0.625 0.625S2.375 5.34518 2.375 5V1.625c0 -0.43098 0.1712 -0.844302 0.47595 -1.149049C3.1557 0.171205 3.56902 0 4 0h8.375c0.431 0 0.8443 0.171205 1.149 0.475951C13.8288 0.780698 14 1.19402 14 1.625V9.5c0 0.43098 -0.1712 0.8443 -0.476 1.149 -0.3047 0.3048 -0.718 0.476 -1.149 0.476H11c-0.3452 0 -0.625 -0.2798 -0.625 -0.625s0.2798 -0.625 0.625 -0.625h1.375c0.0995 0 0.1948 -0.03951 0.2652 -0.10984 0.0703 -0.07032 0.1098 -0.1657 0.1098 -0.26516v-6H3.625ZM1.25 12.375V10h6.625v2.375c0 0.2071 -0.16789 0.375 -0.375 0.375H1.625c-0.20711 0 -0.375 -0.1679 -0.375 -0.375ZM0 8.5c0 -0.89746 0.727537 -1.625 1.625 -1.625H7.5c0.89746 0 1.625 0.72754 1.625 1.625v3.875C9.125 13.2725 8.39746 14 7.5 14H1.625C0.727537 14 0 13.2725 0 12.375V8.5Z" clip-rule="evenodd" stroke-width="1"></path></g></svg>