<svg xmlns="http://www.w3.org/2000/svg" fill="currentColor" viewBox="0 0 14 14"><g id="Free Remix/Interface Essential/line-arrow-move-horizontal--expand-resize-bigger-horizontal-smaller-size-arrow-arrows-big"><path id="Union" fill="currentColor" fill-rule="evenodd" d="M7 0.375c0.34518 0 0.625 0.279822 0.625 0.625v12c0 0.3452 -0.27982 0.625 -0.625 0.625s-0.625 -0.2798 -0.625 -0.625V1c0 -0.345178 0.27982 -0.625 0.625 -0.625ZM4.06694 3.55806c0.24408 0.24408 0.24408 0.6398 0 0.88388L1.50888 7l2.55806 2.55806c0.24408 0.24408 0.24408 0.63984 0 0.88384 -0.24408 0.2441 -0.6398 0.2441 -0.88388 0L0.183058 7.44194c-0.2440774 -0.24408 -0.2440774 -0.6398 0 -0.88388l3.000002 -3c0.24408 -0.24408 0.6398 -0.24408 0.88388 0Zm6.74996 0c-0.244 -0.24408 -0.6398 -0.24408 -0.88384 0 -0.24408 0.24408 -0.24408 0.6398 0 0.88388L12.4911 7 9.93306 9.55806c-0.24408 0.24408 -0.24408 0.63984 0 0.88384 0.24404 0.2441 0.63984 0.2441 0.88384 0l3 -2.99996c0.2441 -0.24408 0.2441 -0.6398 0 -0.88388l-3 -3Z" clip-rule="evenodd" stroke-width="1"></path></g></svg>