<svg xmlns="http://www.w3.org/2000/svg" fill="none" viewBox="0 0 14 14"><g><path id="Union" fill="currentColor" fill-rule="evenodd" d="M0.375 2C0.375 1.11016 1.11016 0.375 2 0.375h6.5c0.88984 0 1.625 0.73516 1.625 1.625v1.875H12c0.8898 0 1.625 0.73516 1.625 1.625V12c0 0.8975 -0.7275 1.625 -1.625 1.625H5.5c-0.88984 0 -1.625 -0.7352 -1.625 -1.625v-1.875H2c-0.88984 0 -1.625 -0.73516 -1.625 -1.625V2Zm8.5 1.875H5.5c-0.88984 0 -1.625 0.73516 -1.625 1.625v3.375H2c-0.19949 0 -0.375 -0.17551 -0.375 -0.375V2c0 -0.19949 0.17551 -0.375 0.375 -0.375h6.5c0.19949 0 0.375 0.17551 0.375 0.375v1.875Z" clip-rule="evenodd" stroke-width="1"></path></g></svg>