<svg xmlns="http://www.w3.org/2000/svg" fill="none" viewBox="0 0 14 14" id="Coins-Stack--Streamline-Core" fill="currentColor">
<g id="coins-stack--accounting-billing-payment-stack-cash-coins-currency-money-finance"><path id="Union" fill="currentColor" fill-rule="evenodd" d="M0.123 5.583v1.703c0 0.968 1.55 1.782 3.627 1.962V6.714l0.003 -0.12C2.6 6.512 1.55 6.267 0.727 5.9a5.147 5.147 0 0 1 -0.604 -0.317Zm9 -3.583v1.47c-1.236 0.041 -2.397 0.28 -3.313 0.688 -0.502 0.223 -0.986 0.522 -1.362 0.916 -0.085 0.09 -0.168 0.188 -0.244 0.293 -1.187 -0.044 -2.223 -0.277 -2.967 -0.609 -0.416 -0.185 -0.714 -0.39 -0.899 -0.585a0.826 0.826 0 0 1 -0.215 -0.348V2c0 -1.105 2.014 -2 4.5 -2 2.485 0 4.5 0.895 4.5 2Zm-4.5 0.931c1.735 0 3.142 -0.404 3.142 -0.903 0 -0.5 -1.407 -0.904 -3.143 -0.904 -1.735 0 -3.142 0.405 -3.142 0.904s1.407 0.903 3.142 0.903ZM5 12v-1.703c0.188 0.116 0.391 0.222 0.605 0.317 1.025 0.458 2.4 0.725 3.895 0.725 1.494 0 2.87 -0.267 3.895 -0.725 0.214 -0.095 0.417 -0.2 0.605 -0.317V12c0 1.1 -2 2 -4.5 2S5 13.1 5 12Zm0.216 -3.113A0.826 0.826 0 0 1 5 8.54V6.714c0 -1.104 2.015 -2 4.5 -2s4.5 0.896 4.5 2V8.54a0.825 0.825 0 0 1 -0.216 0.348c-0.185 0.195 -0.482 0.4 -0.898 0.586 -0.83 0.37 -2.025 0.616 -3.386 0.616 -1.361 0 -2.555 -0.246 -3.386 -0.616 -0.416 -0.186 -0.713 -0.39 -0.898 -0.586Zm7.426 -2.145c0 0.5 -1.407 0.904 -3.142 0.904 -1.736 0 -3.142 -0.405 -3.142 -0.904s1.406 -0.904 3.142 -0.904c1.735 0 3.142 0.405 3.142 0.904Z" clip-rule="evenodd" stroke-width="1"></path></g></svg>