<svg viewBox="0 0 14 14" fill="currentColor" xmlns="http://www.w3.org/2000/svg">
<path fill-rule="evenodd" clip-rule="evenodd" d="M13.625 7C13.625 7.34518 13.3452 7.625 13 7.625L1 7.625C0.654801 7.625 0.375 7.34518 0.375 7C0.375 6.65482 0.654801 6.375 1 6.375L13 6.375C13.3452 6.375 13.625 6.65482 13.625 7ZM10.4419 4.06694C10.1979 4.31102 9.80214 4.31102 9.55806 4.06694L7 1.50888L4.44194 4.06694C4.19786 4.31102 3.8021 4.31102 3.5581 4.06694C3.314 3.82286 3.314 3.42714 3.5581 3.18306L6.55806 0.183058C6.80214 -0.0610192 7.19786 -0.0610192 7.44194 0.183058L10.4419 3.18306C10.686 3.42714 10.686 3.82286 10.4419 4.06694ZM10.4419 10.8169C10.686 10.5729 10.686 10.1771 10.4419 9.93306C10.1979 9.68898 9.80214 9.68898 9.55806 9.93306L7 12.4911L4.44194 9.93306C4.19786 9.68898 3.8021 9.68898 3.5581 9.93306C3.314 10.1771 3.314 10.5729 3.5581 10.8169L6.55806 13.8169C6.80214 14.061 7.19786 14.061 7.44194 13.8169L10.4419 10.8169Z" fill="currentColor"/>
</svg>
